<svg width="12" height="13" viewBox="0 0 12 13" fill="none" xmlns="http://www.w3.org/2000/svg">
<path d="M6.27036 0.277808L7.5881 3.67401C7.68893 3.93398 7.90725 4.11208 8.15788 4.13753L11.368 4.46277C11.7312 4.5225 11.8761 5.02585 11.6128 5.31569L9.19464 7.61116C8.99884 7.79701 8.90975 8.08907 8.96359 8.37116L9.66652 12.0893C9.7282 12.4975 9.34932 12.8095 9.02429 12.6159L6.22239 10.7618C6.00701 10.6191 5.74072 10.6191 5.52534 10.7618L2.72343 12.6147C2.39938 12.8072 2.01953 12.4964 2.0812 12.0882L2.78413 8.37005C2.83699 8.08796 2.74888 7.79591 2.55308 7.61006L0.133965 5.31679C-0.128408 5.02806 0.0164849 4.52361 0.378716 4.46387L3.58887 4.13863C3.83949 4.11319 4.05781 3.93508 4.15865 3.67511L5.47639 0.278914C5.63988 -0.0927869 6.10784 -0.0927869 6.27036 0.277808Z" fill="#FDD835"/>
<path d="M6.1744 3.87757L5.95119 1.37523C5.94238 1.23584 5.91692 0.996887 6.11468 0.996887C6.27132 0.996887 6.35649 1.36527 6.35649 1.36527L7.02613 3.37423C7.27871 4.13865 7.17494 4.40083 6.93117 4.55571C6.65117 4.73271 6.23803 4.59442 6.1744 3.87757Z" fill="#FFFF8D"/>
<path d="M8.93617 7.38878L10.857 5.69511C10.9519 5.6055 11.1233 5.4628 10.9862 5.30018C10.8775 5.17185 10.5838 5.3566 10.5838 5.3566L8.90288 6.09889C8.40163 6.2947 8.06877 6.58454 8.0394 6.9496C8.00122 7.43635 8.38793 7.81137 8.93617 7.38878Z" fill="#F4B400"/>
</svg>
