<svg width="29" height="28" viewBox="0 0 29 28" fill="none" xmlns="http://www.w3.org/2000/svg">
<path d="M27.7791 10.8769H26.6493V10.8208H14.026V16.2312H21.9527C20.7963 19.3807 17.6888 21.6415 14.026 21.6415C9.37846 21.6415 5.61038 18.0078 5.61038 13.526C5.61038 9.04413 9.37846 5.41038 14.026 5.41038C16.1712 5.41038 18.1229 6.19083 19.609 7.46565L23.5762 3.63984C21.0712 1.38844 17.7204 0 14.026 0C6.28012 0 0 6.05625 0 13.526C0 20.9957 6.28012 27.0519 14.026 27.0519C21.7718 27.0519 28.0519 20.9957 28.0519 13.526C28.0519 12.619 27.9551 11.7338 27.7791 10.8769Z" fill="#FFC107"/>
<path d="M1.61719 7.2303L6.22542 10.4894C7.47232 7.51232 10.4921 5.41038 14.026 5.41038C16.1712 5.41038 18.1229 6.19083 19.609 7.46565L23.5762 3.63984C21.0712 1.38844 17.7204 0 14.026 0C8.63858 0 3.96654 2.9331 1.61719 7.2303Z" fill="#FF3D00"/>
<path d="M14.0259 27.0519C17.6488 27.0519 20.9407 25.7149 23.4296 23.5406L19.0886 19.9982C17.6804 21.0268 15.9299 21.6416 14.0259 21.6416C10.3778 21.6416 7.28013 19.3983 6.11317 16.2677L1.53931 19.6661C3.8606 24.0465 8.57473 27.0519 14.0259 27.0519Z" fill="#4CAF50"/>
<path d="M27.7792 10.8769H26.6494V10.8208H14.026V16.2312H21.9528C21.3973 17.7441 20.3882 19.0486 19.0866 19.9988C19.0873 19.9982 19.088 19.9982 19.0887 19.9975L23.4297 23.5399C23.1225 23.8091 28.052 20.289 28.052 13.526C28.052 12.6191 27.9552 11.7338 27.7792 10.8769Z" fill="#1976D2"/>
</svg>
