<svg width="19" height="18" viewBox="0 0 19 18" fill="none" xmlns="http://www.w3.org/2000/svg">
<path d="M17.0827 1.51315C16.6184 1.03319 16.0671 0.652519 15.4604 0.392885C14.8537 0.13325 14.2034 -0.00025452 13.5468 3.64275e-07C12.8901 0.000255248 12.24 0.134265 11.6334 0.39437C11.0269 0.654476 10.4759 1.03558 10.0119 1.5159L9.4063 2.14957L8.80569 1.51727L8.80179 1.51323C8.33769 1.0335 7.78672 0.652954 7.18034 0.393323C6.57397 0.133692 5.92406 6.14889e-05 5.26772 6.14889e-05C4.61138 6.14889e-05 3.96147 0.133692 3.3551 0.393323C2.74872 0.652954 2.19775 1.0335 1.73365 1.51323L1.46385 1.79213C0.526561 2.76099 0 4.07505 0 5.44522C0 6.81539 0.526561 8.12944 1.46385 9.0983L8.58481 16.459L9.38896 17.33L9.40813 17.3101L9.42895 17.3316L10.1824 16.5099L17.3525 9.09818C18.2884 8.12855 18.814 6.81479 18.814 5.4451C18.814 4.07541 18.2884 2.76164 17.3525 1.79201L17.0827 1.51315ZM16.4688 8.18493L9.40813 15.4836L2.3473 8.18493C1.64434 7.45828 1.24942 6.47274 1.24942 5.44512C1.24942 4.41749 1.64434 3.43195 2.3473 2.70531L2.61715 2.42641C3.31977 1.70013 4.27262 1.29194 5.26627 1.29155C6.25993 1.29116 7.21307 1.69862 7.91622 2.42435L9.4036 3.98985L10.8981 2.42641C11.2461 2.06661 11.6594 1.7812 12.1141 1.58648C12.5689 1.39175 13.0564 1.29153 13.5486 1.29153C14.0409 1.29153 14.5283 1.39175 14.9831 1.58648C15.4379 1.7812 15.8511 2.06661 16.1992 2.42641L16.469 2.70527C17.1709 3.43251 17.565 4.41785 17.565 5.44513C17.565 6.4724 17.1707 7.45772 16.4688 8.18493Z" fill="black"/>
</svg>
