<svg width="19" height="12" viewBox="0 0 19 12" fill="none" xmlns="http://www.w3.org/2000/svg">
<path d="M17.0827 1.68333C16.6184 1.37205 16.0671 1.12516 15.4604 0.956774C14.8537 0.788386 14.2034 0.7018 13.5468 0.701966C12.8901 0.702131 12.24 0.789044 11.6334 0.957737C11.0269 1.12643 10.4759 1.3736 10.0119 1.68511L9.4063 2.09609L8.80569 1.686L8.80179 1.68339C8.33769 1.37225 7.78672 1.12544 7.18034 0.957058C6.57397 0.788672 5.92406 0.702005 5.26772 0.702005C4.61138 0.702005 3.96147 0.788672 3.3551 0.957058C2.74872 1.12544 2.19775 1.37225 1.73365 1.68339L1.46385 1.86427C0.526561 2.49263 0 3.34487 0 4.2335C0 5.12214 0.526561 5.97438 1.46385 6.60274L8.58481 11.3766L9.38896 11.9414L9.40813 11.9286L9.42895 11.9425L10.1824 11.4096L17.3525 6.60266C18.2884 5.9738 18.814 5.12175 18.814 4.23342C18.814 3.3451 18.2884 2.49305 17.3525 1.86419L17.0827 1.68333ZM16.4688 6.01036L9.40813 10.744L2.3473 6.01036C1.64434 5.53909 1.24942 4.89991 1.24942 4.23344C1.24942 3.56696 1.64434 2.92778 2.3473 2.45651L2.61715 2.27563C3.31977 1.8046 4.27262 1.53986 5.26627 1.53961C6.25993 1.53936 7.21307 1.80362 7.91622 2.2743L9.4036 3.28961L10.8981 2.27563C11.2461 2.04228 11.6594 1.85718 12.1141 1.73089C12.5689 1.6046 13.0564 1.5396 13.5486 1.5396C14.0409 1.5396 14.5283 1.6046 14.9831 1.73089C15.4379 1.85718 15.8511 2.04228 16.1992 2.27563L16.469 2.45649C17.1709 2.92815 17.565 3.5672 17.565 4.23345C17.565 4.89969 17.1707 5.53873 16.4688 6.01036Z" fill="black"/>
</svg>
