<svg width="28" height="28" viewBox="0 0 28 28" fill="none" xmlns="http://www.w3.org/2000/svg">
<path d="M14 2.625C11.9732 2.625 10.0293 3.43016 8.59612 4.86336C7.16292 6.29656 6.35776 8.2404 6.35776 10.2672C6.35776 16.2482 12.1923 23.4453 13.7212 25.2134C13.8032 25.3075 13.9192 25.3652 14.0437 25.374C14.1683 25.3827 14.2912 25.3418 14.3856 25.2601L14.4323 25.2134C15.9408 23.4383 21.6417 16.2482 21.6417 10.2667C21.6415 8.24002 20.8364 6.29642 19.4033 4.86336C17.9703 3.43031 16.0267 2.62515 14 2.625ZM14 12.341C13.4874 12.341 12.9863 12.189 12.5601 11.9042C12.1339 11.6194 11.8017 11.2147 11.6055 10.7411C11.4094 10.2675 11.3581 9.74637 11.4581 9.24362C11.5581 8.74087 11.8049 8.27907 12.1674 7.91661C12.5298 7.55414 12.9916 7.3073 13.4944 7.2073C13.9971 7.1073 14.5182 7.15862 14.9918 7.35478C15.4654 7.55095 15.8702 7.88314 16.155 8.30935C16.4398 8.73556 16.5918 9.23665 16.5918 9.74925V9.75567C16.5901 10.4419 16.3162 11.0995 15.8304 11.5842C15.3445 12.0688 14.6863 12.341 14 12.341Z" stroke="black" stroke-linecap="round" stroke-linejoin="round"/>
</svg>
