<svg width="33" height="32" viewBox="0 0 33 32" fill="none" xmlns="http://www.w3.org/2000/svg">
<g clip-path="url(#clip0_19_3)">
<path d="M16.5 0C20.8761 0 25.0729 1.68571 28.1673 4.68629C31.2616 7.68687 33 11.7565 33 16C33 20.2435 31.2616 24.3131 28.1673 27.3137C25.0729 30.3143 20.8761 32 16.5 32C12.1239 32 7.92709 30.3143 4.83274 27.3137C1.73839 24.3131 0 20.2435 0 16C0 11.7565 1.73839 7.68687 4.83274 4.68629C7.92709 1.68571 12.1239 0 16.5 0ZM9.28125 15C9.00775 15 8.74544 15.1054 8.55205 15.2929C8.35865 15.4804 8.25 15.7348 8.25 16C8.25 16.2652 8.35865 16.5196 8.55205 16.7071C8.74544 16.8946 9.00775 17 9.28125 17H21.2293L16.8011 21.292C16.7052 21.385 16.6292 21.4954 16.5773 21.6168C16.5254 21.7383 16.4987 21.8685 16.4987 22C16.4987 22.1315 16.5254 22.2617 16.5773 22.3832C16.6292 22.5046 16.7052 22.615 16.8011 22.708C16.897 22.801 17.0108 22.8747 17.1361 22.925C17.2614 22.9754 17.3957 23.0013 17.5312 23.0013C17.6668 23.0013 17.8011 22.9754 17.9264 22.925C18.0517 22.8747 18.1655 22.801 18.2614 22.708L24.4489 16.708C24.5449 16.6151 24.6211 16.5048 24.6731 16.3833C24.7251 16.2618 24.7518 16.1315 24.7518 16C24.7518 15.8685 24.7251 15.7382 24.6731 15.6167C24.6211 15.4952 24.5449 15.3849 24.4489 15.292L18.2614 9.292C18.1655 9.19902 18.0517 9.12527 17.9264 9.07495C17.8011 9.02464 17.6668 8.99874 17.5312 8.99874C17.3957 8.99874 17.2614 9.02464 17.1361 9.07495C17.0108 9.12527 16.897 9.19902 16.8011 9.292C16.7052 9.38498 16.6292 9.49535 16.5773 9.61683C16.5254 9.73831 16.4987 9.86851 16.4987 10C16.4987 10.1315 16.5254 10.2617 16.5773 10.3832C16.6292 10.5046 16.7052 10.615 16.8011 10.708L21.2293 15H9.28125Z" fill="#ED2D2D"/>
</g>
<defs>
<clipPath id="clip0_19_3">
<rect width="33" height="32" fill="white"/>
</clipPath>
</defs>
</svg>
