<svg width="57" height="58" viewBox="0 0 57 58" fill="none" xmlns="http://www.w3.org/2000/svg">
<g clip-path="url(#clip0_9_130)">
<path d="M28.5 58C20.9413 58 13.6922 54.9447 8.34745 49.5061C3.00267 44.0675 0 36.6913 0 29C0 21.3087 3.00267 13.9325 8.34745 8.4939C13.6922 3.05535 20.9413 0 28.5 0C36.0587 0 43.3078 3.05535 48.6525 8.4939C53.9973 13.9325 57 21.3087 57 29C57 36.6913 53.9973 44.0675 48.6525 49.5061C43.3078 54.9447 36.0587 58 28.5 58ZM40.9688 30.8125C41.4412 30.8125 41.8942 30.6215 42.2283 30.2816C42.5623 29.9417 42.75 29.4807 42.75 29C42.75 28.5193 42.5623 28.0583 42.2283 27.7184C41.8942 27.3785 41.4412 27.1875 40.9688 27.1875H20.3312L27.9799 19.4082C28.1455 19.2397 28.2769 19.0397 28.3665 18.8195C28.4561 18.5993 28.5023 18.3633 28.5023 18.125C28.5023 17.8867 28.4561 17.6507 28.3665 17.4305C28.2769 17.2103 28.1455 17.0103 27.9799 16.8418C27.8143 16.6732 27.6177 16.5396 27.4013 16.4484C27.1849 16.3572 26.953 16.3102 26.7188 16.3102C26.4845 16.3102 26.2526 16.3572 26.0362 16.4484C25.8198 16.5396 25.6232 16.6732 25.4576 16.8418L14.7701 27.7167C14.6042 27.8851 14.4726 28.0851 14.3828 28.3053C14.293 28.5255 14.2468 28.7616 14.2468 29C14.2468 29.2384 14.293 29.4745 14.3828 29.6947C14.4726 29.9149 14.6042 30.1149 14.7701 30.2833L25.4576 41.1583C25.6232 41.3268 25.8198 41.4604 26.0362 41.5516C26.2526 41.6428 26.4845 41.6898 26.7188 41.6898C26.953 41.6898 27.1849 41.6428 27.4013 41.5516C27.6177 41.4604 27.8143 41.3268 27.9799 41.1583C28.1455 40.9897 28.2769 40.7897 28.3665 40.5695C28.4561 40.3493 28.5023 40.1133 28.5023 39.875C28.5023 39.6367 28.4561 39.4007 28.3665 39.1805C28.2769 38.9603 28.1455 38.7603 27.9799 38.5917L20.3312 30.8125H40.9688Z" fill="#ED2D2D"/>
</g>
<defs>
<clipPath id="clip0_9_130">
<rect width="57" height="58" fill="white" transform="matrix(-1 0 0 -1 57 58)"/>
</clipPath>
</defs>
</svg>
