<svg width="43" height="42" viewBox="0 0 43 42" fill="none" xmlns="http://www.w3.org/2000/svg">
<g clip-path="url(#clip0_35_696)">
<path d="M21.5 42C15.7978 42 10.3292 39.7875 6.2972 35.8492C2.26517 31.911 0 26.5695 0 21C0 15.4305 2.26517 10.089 6.2972 6.15076C10.3292 2.21249 15.7978 0 21.5 0C27.2022 0 32.6708 2.21249 36.7028 6.15076C40.7348 10.089 43 15.4305 43 21C43 26.5695 40.7348 31.911 36.7028 35.8492C32.6708 39.7875 27.2022 42 21.5 42ZM30.9062 22.3125C31.2626 22.3125 31.6044 22.1742 31.8564 21.9281C32.1084 21.6819 32.25 21.3481 32.25 21C32.25 20.6519 32.1084 20.3181 31.8564 20.0719C31.6044 19.8258 31.2626 19.6875 30.9063 19.6875L15.3376 19.6875L21.1076 14.0543C21.2326 13.9322 21.3317 13.7873 21.3993 13.6279C21.4669 13.4685 21.5017 13.2976 21.5017 13.125C21.5017 12.9524 21.4669 12.7815 21.3993 12.6221C21.3317 12.4627 21.2326 12.3178 21.1076 12.1957C20.9827 12.0737 20.8344 11.9769 20.6711 11.9109C20.5079 11.8448 20.3329 11.8108 20.1563 11.8108C19.9796 11.8108 19.8046 11.8448 19.6414 11.9109C19.4781 11.9769 19.3298 12.0737 19.2049 12.1957L11.1424 20.0707C11.0172 20.1927 10.918 20.3375 10.8502 20.497C10.7825 20.6564 10.7476 20.8274 10.7476 21C10.7476 21.1726 10.7825 21.3436 10.8502 21.503C10.918 21.6625 11.0172 21.8073 11.1424 21.9293L19.2049 29.8043C19.3298 29.9263 19.4781 30.0231 19.6414 30.0891C19.8046 30.1552 19.9796 30.1892 20.1562 30.1892C20.3329 30.1892 20.5079 30.1552 20.6711 30.0891C20.8344 30.0231 20.9827 29.9263 21.1076 29.8043C21.2326 29.6822 21.3317 29.5373 21.3993 29.3779C21.4669 29.2185 21.5017 29.0476 21.5017 28.875C21.5017 28.7024 21.4669 28.5315 21.3993 28.3721C21.3317 28.2127 21.2326 28.0678 21.1076 27.9457L15.3376 22.3125L30.9062 22.3125Z" fill="#ED2D2D"/>
</g>
<defs>
<clipPath id="clip0_35_696">
<rect width="43" height="42" fill="white" transform="matrix(-1 0 0 -1 43 42)"/>
</clipPath>
</defs>
</svg>
