<svg width="42" height="44" viewBox="0 0 42 44" fill="none" xmlns="http://www.w3.org/2000/svg">
<path d="M23.579 35.3442C18.6934 35.3442 14.0079 33.4824 10.5533 30.1682C7.09869 26.854 5.15791 22.359 5.15791 17.6721C5.15791 12.9852 7.09869 8.49019 10.5533 5.17602C14.0079 1.86185 18.6934 -2.28882e-05 23.579 -2.28882e-05C28.4645 -2.28882e-05 33.15 1.86185 36.6046 5.17602C40.0592 8.49019 42 12.9852 42 17.6721C42 22.359 40.0592 26.854 36.6046 30.1682C33.15 33.4824 28.4645 35.3442 23.579 35.3442ZM31.6382 18.7766C31.9435 18.7766 32.2364 18.6602 32.4523 18.4531C32.6682 18.246 32.7895 17.965 32.7895 17.6721C32.7895 17.3792 32.6682 17.0982 32.4523 16.8911C32.2364 16.684 31.9435 16.5676 31.6382 16.5676L18.299 16.5676L23.2428 11.8271C23.3498 11.7244 23.4347 11.6024 23.4927 11.4683C23.5506 11.3341 23.5804 11.1903 23.5804 11.0451C23.5804 10.8998 23.5506 10.756 23.4927 10.6218C23.4347 10.4877 23.3498 10.3658 23.2428 10.2631C23.1357 10.1604 23.0086 10.0789 22.8688 10.0233C22.7289 9.96776 22.579 9.93916 22.4276 9.93916C22.2763 9.93916 22.1264 9.96776 21.9865 10.0233C21.8466 10.0789 21.7196 10.1604 21.6125 10.2631L14.7046 16.8901C14.5974 16.9927 14.5123 17.1146 14.4543 17.2488C14.3962 17.383 14.3664 17.5268 14.3664 17.6721C14.3664 17.8174 14.3962 17.9612 14.4543 18.0954C14.5123 18.2296 14.5974 18.3515 14.7046 18.4541L21.6125 25.0811C21.7196 25.1838 21.8466 25.2653 21.9865 25.3209C22.1264 25.3765 22.2763 25.4051 22.4276 25.4051C22.579 25.4051 22.7289 25.3765 22.8688 25.3209C23.0086 25.2653 23.1357 25.1838 23.2428 25.0811C23.3498 24.9785 23.4347 24.8565 23.4927 24.7224C23.5506 24.5882 23.5804 24.4444 23.5804 24.2992C23.5804 24.1539 23.5506 24.0101 23.4927 23.8759C23.4347 23.7418 23.3498 23.6199 23.2428 23.5172L18.299 18.7766L31.6382 18.7766Z" fill="#ED2D2D"/>
</svg>
