<svg width="23" height="20" viewBox="0 0 23 20" fill="none" xmlns="http://www.w3.org/2000/svg">
<g clip-path="url(#clip0_19_239)">
<path d="M11.5 0C14.55 0 17.4751 1.05357 19.6317 2.92893C21.7884 4.8043 23 7.34784 23 10C23 12.6522 21.7884 15.1957 19.6317 17.0711C17.4751 18.9464 14.55 20 11.5 20C8.45001 20 5.52494 18.9464 3.36827 17.0711C1.2116 15.1957 0 12.6522 0 10C0 7.34784 1.2116 4.8043 3.36827 2.92893C5.52494 1.05357 8.45001 0 11.5 0ZM6.46875 9.375C6.27813 9.375 6.09531 9.44085 5.96052 9.55806C5.82573 9.67527 5.75 9.83424 5.75 10C5.75 10.1658 5.82573 10.3247 5.96052 10.4419C6.09531 10.5592 6.27813 10.625 6.46875 10.625H14.7962L11.7099 13.3075C11.643 13.3656 11.59 13.4346 11.5539 13.5105C11.5177 13.5864 11.4991 13.6678 11.4991 13.75C11.4991 13.8322 11.5177 13.9136 11.5539 13.9895C11.59 14.0654 11.643 14.1344 11.7099 14.1925C11.7767 14.2506 11.856 14.2967 11.9433 14.3282C12.0307 14.3596 12.1242 14.3758 12.2188 14.3758C12.3133 14.3758 12.4068 14.3596 12.4942 14.3282C12.5815 14.2967 12.6608 14.2506 12.7276 14.1925L17.0401 10.4425C17.1071 10.3844 17.1602 10.3155 17.1964 10.2395C17.2326 10.1636 17.2513 10.0822 17.2513 10C17.2513 9.91779 17.2326 9.83639 17.1964 9.76046C17.1602 9.68453 17.1071 9.61556 17.0401 9.5575L12.7276 5.8075C12.6608 5.74939 12.5815 5.70329 12.4942 5.67185C12.4068 5.6404 12.3133 5.62421 12.2188 5.62421C12.1242 5.62421 12.0307 5.6404 11.9433 5.67185C11.856 5.70329 11.7767 5.74939 11.7099 5.8075C11.643 5.86561 11.59 5.9346 11.5539 6.01052C11.5177 6.08644 11.4991 6.16782 11.4991 6.25C11.4991 6.33218 11.5177 6.41356 11.5539 6.48948C11.59 6.5654 11.643 6.63439 11.7099 6.6925L14.7962 9.375H6.46875Z" fill="#ED2D2D"/>
</g>
<defs>
<clipPath id="clip0_19_239">
<rect width="23" height="20" fill="white"/>
</clipPath>
</defs>
</svg>
