<svg width="37" height="39" viewBox="0 0 37 39" fill="none" xmlns="http://www.w3.org/2000/svg">
<path d="M16.2281 7.67212C20.532 7.67212 24.6597 9.32242 27.703 12.26C30.7464 15.1975 32.4561 19.1817 32.4561 23.3361C32.4561 27.4904 30.7464 31.4746 27.703 34.4121C24.6597 37.3497 20.532 39 16.2281 39C11.9241 39 7.79644 37.3497 4.75309 34.4121C1.70974 31.4746 0 27.4904 0 23.3361C0 19.1817 1.70974 15.1975 4.75309 12.26C7.79644 9.32242 11.9241 7.67212 16.2281 7.67212ZM9.12829 22.3571C8.85929 22.3571 8.60131 22.4602 8.4111 22.6438C8.22089 22.8274 8.11403 23.0764 8.11403 23.3361C8.11403 23.5957 8.22089 23.8447 8.4111 24.0283C8.60131 24.2119 8.85929 24.315 9.12829 24.315H20.8794L16.5242 28.5169C16.4299 28.6079 16.3551 28.716 16.3041 28.8349C16.2531 28.9538 16.2268 29.0813 16.2268 29.21C16.2268 29.3388 16.2531 29.4662 16.3041 29.5851C16.3551 29.7041 16.4299 29.8121 16.5242 29.9032C16.6185 29.9942 16.7305 30.0664 16.8537 30.1156C16.9769 30.1649 17.109 30.1903 17.2423 30.1903C17.3757 30.1903 17.5077 30.1649 17.631 30.1156C17.7542 30.0664 17.8661 29.9942 17.9604 29.9032L24.0459 24.0292C24.1404 23.9382 24.2153 23.8302 24.2665 23.7113C24.3176 23.5923 24.3439 23.4648 24.3439 23.3361C24.3439 23.2073 24.3176 23.0798 24.2665 22.9608C24.2153 22.8419 24.1404 22.7339 24.0459 22.6429L17.9604 16.7689C17.8661 16.6779 17.7542 16.6057 17.631 16.5565C17.5077 16.5072 17.3757 16.4818 17.2423 16.4818C17.109 16.4818 16.9769 16.5072 16.8537 16.5565C16.7305 16.6057 16.6185 16.6779 16.5242 16.7689C16.4299 16.86 16.3551 16.968 16.3041 17.087C16.2531 17.2059 16.2268 17.3334 16.2268 17.4621C16.2268 17.5908 16.2531 17.7183 16.3041 17.8372C16.3551 17.9561 16.4299 18.0642 16.5242 18.1552L20.8794 22.3571H9.12829Z" fill="#ED2D2D"/>
</svg>
