<svg width="43" height="42" viewBox="0 0 43 42" fill="none" xmlns="http://www.w3.org/2000/svg">
<g clip-path="url(#clip0_35_979)">
<path d="M21.5 0C27.2022 0 32.6708 2.21249 36.7028 6.15076C40.7348 10.089 43 15.4305 43 21C43 26.5695 40.7348 31.911 36.7028 35.8492C32.6708 39.7875 27.2022 42 21.5 42C15.7978 42 10.3292 39.7875 6.2972 35.8492C2.26517 31.911 0 26.5695 0 21C0 15.4305 2.26517 10.089 6.2972 6.15076C10.3292 2.21249 15.7978 0 21.5 0ZM12.0938 19.6875C11.7374 19.6875 11.3956 19.8258 11.1436 20.0719C10.8916 20.3181 10.75 20.6519 10.75 21C10.75 21.3481 10.8916 21.6819 11.1436 21.9281C11.3956 22.1742 11.7374 22.3125 12.0938 22.3125H27.6624L21.8924 27.9457C21.7674 28.0678 21.6683 28.2127 21.6007 28.3721C21.5331 28.5315 21.4983 28.7024 21.4983 28.875C21.4983 29.0476 21.5331 29.2185 21.6007 29.3779C21.6683 29.5373 21.7674 29.6822 21.8924 29.8043C22.0173 29.9263 22.1656 30.0231 22.3289 30.0891C22.4921 30.1552 22.6671 30.1892 22.8438 30.1892C23.0204 30.1892 23.1954 30.1552 23.3586 30.0891C23.5219 30.0231 23.6702 29.9263 23.7951 29.8043L31.8576 21.9293C31.9828 21.8073 32.082 21.6625 32.1498 21.503C32.2175 21.3436 32.2524 21.1726 32.2524 21C32.2524 20.8274 32.2175 20.6564 32.1498 20.497C32.082 20.3375 31.9828 20.1927 31.8576 20.0707L23.7951 12.1957C23.6702 12.0737 23.5219 11.9769 23.3586 11.9109C23.1954 11.8448 23.0204 11.8108 22.8438 11.8108C22.6671 11.8108 22.4921 11.8448 22.3289 11.9109C22.1656 11.9769 22.0173 12.0737 21.8924 12.1957C21.7674 12.3178 21.6683 12.4627 21.6007 12.6221C21.5331 12.7815 21.4983 12.9524 21.4983 13.125C21.4983 13.2976 21.5331 13.4685 21.6007 13.6279C21.6683 13.7873 21.7674 13.9322 21.8924 14.0543L27.6624 19.6875H12.0938Z" fill="#ED2D2D"/>
</g>
<defs>
<clipPath id="clip0_35_979">
<rect width="43" height="42" fill="white"/>
</clipPath>
</defs>
</svg>
