<svg width="57" height="58" viewBox="0 0 57 58" fill="none" xmlns="http://www.w3.org/2000/svg">
<g clip-path="url(#clip0_8_4)">
<path d="M28.5 0C36.0587 0 43.3078 3.05535 48.6525 8.4939C53.9973 13.9325 57 21.3087 57 29C57 36.6913 53.9973 44.0675 48.6525 49.5061C43.3078 54.9447 36.0587 58 28.5 58C20.9413 58 13.6922 54.9447 8.34746 49.5061C3.00267 44.0675 0 36.6913 0 29C0 21.3087 3.00267 13.9325 8.34746 8.4939C13.6922 3.05535 20.9413 0 28.5 0ZM16.0312 27.1875C15.5588 27.1875 15.1058 27.3785 14.7717 27.7184C14.4377 28.0583 14.25 28.5193 14.25 29C14.25 29.4807 14.4377 29.9417 14.7717 30.2816C15.1058 30.6215 15.5588 30.8125 16.0312 30.8125H36.6688L29.0201 38.5918C28.8545 38.7603 28.7231 38.9603 28.6335 39.1805C28.5439 39.4007 28.4977 39.6367 28.4977 39.875C28.4977 40.1133 28.5439 40.3493 28.6335 40.5695C28.7231 40.7897 28.8545 40.9897 29.0201 41.1582C29.1857 41.3268 29.3823 41.4604 29.5987 41.5516C29.8151 41.6428 30.047 41.6898 30.2812 41.6898C30.5155 41.6898 30.7474 41.6428 30.9638 41.5516C31.1802 41.4604 31.3768 41.3268 31.5424 41.1582L42.2299 30.2833C42.3958 30.1149 42.5274 29.9149 42.6172 29.6947C42.707 29.4745 42.7532 29.2384 42.7532 29C42.7532 28.7616 42.707 28.5255 42.6172 28.3053C42.5274 28.0851 42.3958 27.8851 42.2299 27.7167L31.5424 16.8417C31.3768 16.6732 31.1802 16.5396 30.9638 16.4484C30.7474 16.3572 30.5155 16.3102 30.2812 16.3102C30.047 16.3102 29.8151 16.3572 29.5987 16.4484C29.3823 16.5396 29.1857 16.6732 29.0201 16.8417C28.8545 17.0103 28.7231 17.2103 28.6335 17.4305C28.5439 17.6507 28.4977 17.8867 28.4977 18.125C28.4977 18.3633 28.5439 18.5993 28.6335 18.8195C28.7231 19.0397 28.8545 19.2397 29.0201 19.4083L36.6688 27.1875H16.0312Z" fill="#ED2D2D"/>
</g>
<defs>
<clipPath id="clip0_8_4">
<rect width="57" height="58" fill="white"/>
</clipPath>
</defs>
</svg>
