<svg width="34" height="32" viewBox="0 0 34 32" fill="none" xmlns="http://www.w3.org/2000/svg">
<g clip-path="url(#clip0_118_377)">
<path d="M4.25 8C4.25 6.93913 4.69777 5.92172 5.4948 5.17157C6.29183 4.42143 7.37283 4 8.5 4H21.25C22.3772 4 23.4582 4.42143 24.2552 5.17157C25.0522 5.92172 25.5 6.93913 25.5 8V31C25.4999 31.1809 25.4477 31.3584 25.3489 31.5135C25.2501 31.6687 25.1084 31.7957 24.939 31.8811C24.7696 31.9665 24.5787 32.007 24.3867 31.9983C24.1948 31.9897 24.0089 31.9322 23.8489 31.832L14.875 26.202L5.90112 31.832C5.74112 31.9322 5.55524 31.9897 5.36327 31.9983C5.1713 32.007 4.98043 31.9665 4.811 31.8811C4.64156 31.7957 4.49991 31.6687 4.40112 31.5135C4.30233 31.3584 4.2501 31.1809 4.25 31V8ZM8.5 6C7.93641 6 7.39591 6.21071 6.9974 6.58579C6.59888 6.96086 6.375 7.46957 6.375 8V29.132L14.2864 24.168C14.4608 24.0588 14.6655 24.0005 14.875 24.0005C15.0845 24.0005 15.2892 24.0588 15.4636 24.168L23.375 29.132V8C23.375 7.46957 23.1511 6.96086 22.7526 6.58579C22.3541 6.21071 21.8136 6 21.25 6H8.5Z" fill="white"/>
<path d="M9.06952 2H25.5C26.0636 2 26.6041 2.21071 27.0026 2.58579C27.4011 2.96086 27.625 3.46957 27.625 4V27.536L28.0989 27.832C28.2589 27.9322 28.4448 27.9897 28.6367 27.9983C28.8287 28.007 29.0196 27.9665 29.189 27.8811C29.3585 27.7957 29.5001 27.6687 29.5989 27.5135C29.6977 27.3584 29.7499 27.1809 29.75 27V4C29.75 2.93913 29.3022 1.92172 28.5052 1.17157C27.7082 0.421427 26.6272 0 25.5 0L12.75 0C12.004 1.78369e-05 11.2711 0.184851 10.6251 0.535924C9.97902 0.886996 9.44253 1.39194 9.06952 2Z" fill="white"/>
</g>
<defs>
<clipPath id="clip0_118_377">
<rect width="34" height="32" fill="white"/>
</clipPath>
</defs>
</svg>
