<svg width="30" height="29" viewBox="0 0 30 29" fill="none" xmlns="http://www.w3.org/2000/svg">
<path d="M0.09375 6.44344C0.282784 5.64275 0.747479 4.92785 1.41173 4.41581C2.07598 3.90377 2.90041 3.62494 3.75 3.625H26.25C27.0996 3.62494 27.924 3.90377 28.5883 4.41581C29.2525 4.92785 29.7172 5.64275 29.9062 6.44344L15 15.2504L0.09375 6.44344ZM0 8.51331V21.3893L10.8806 14.9404L0 8.51331ZM12.6769 16.0044L0.358125 23.3033C0.662487 23.9237 1.14286 24.4478 1.74334 24.8145C2.34382 25.1813 3.0397 25.3757 3.75 25.375H26.25C26.9602 25.3752 27.6558 25.1804 28.2559 24.8133C28.8561 24.4462 29.336 23.922 29.64 23.3015L17.3212 16.0026L15 17.3746L12.6769 16.0044ZM19.1194 14.9423L30 21.3893V8.51331L19.1194 14.9404V14.9423Z" fill="black"/>
</svg>
