<svg width="32" height="32" viewBox="0 0 32 32" fill="none" xmlns="http://www.w3.org/2000/svg">
<g clip-path="url(#clip0_104_22)">
<path d="M21 2.33334C17.895 2.33334 15.375 4.94668 15.375 8.16668C15.375 11.3867 17.895 14 21 14C24.105 14 26.625 11.3867 26.625 8.16668C26.625 4.94668 24.105 2.33334 21 2.33334ZM21 11.6667C19.1325 11.6667 17.625 10.1033 17.625 8.16668C17.625 6.23001 19.1325 4.66668 21 4.66668C22.8675 4.66668 24.375 6.23001 24.375 8.16668C24.375 10.1033 22.8675 11.6667 21 11.6667ZM24.375 18.6667H22.125C22.125 17.2667 21.2812 16.0067 20.0212 15.5167L13.0913 12.8333H4.125V25.6667H10.875V23.9867L18.75 26.25L27.75 23.3333V22.1667C27.75 20.23 26.2425 18.6667 24.375 18.6667ZM8.625 23.3333H6.375V15.1667H8.625V23.3333ZM18.7163 23.8117L10.875 21.5833V15.1667H12.6862L19.2338 17.6983C19.6163 17.85 19.875 18.235 19.875 18.6667C19.875 18.6667 17.625 18.6083 17.2875 18.4917L14.61 17.57L13.9012 19.7867L16.5787 20.7083C17.1525 20.9067 17.7487 21 18.3562 21H24.375C24.8137 21 25.2075 21.28 25.3875 21.665L18.7163 23.8117Z" fill="black"/>
</g>
<defs>
<clipPath id="clip0_104_22">
<rect width="29" height="28" fill="white" transform="translate(1 2)"/>
</clipPath>
</defs>
</svg>
