<svg width="32" height="32" viewBox="0 0 32 32" fill="none" xmlns="http://www.w3.org/2000/svg">
<path d="M16.5162 19.6167L15.5 17.1667L14.4838 19.6167L11.875 19.8407L13.8566 21.5778L13.2597 24.1667L15.5 22.7912L17.7402 24.1667L17.1433 21.5778L19.125 19.8407L16.5162 19.6167ZM8.24998 4.33333H22.75V6.66666H8.24998V4.33333ZM5.83331 9H25.1666V11.3333H5.83331V9Z" fill="black"/>
<path d="M25.1667 16V25.3333H5.83335V16H25.1667ZM25.1667 13.6667H5.83335C5.19241 13.6667 4.57773 13.9125 4.12451 14.3501C3.6713 14.7877 3.41669 15.3812 3.41669 16V25.3333C3.41669 25.9522 3.6713 26.5457 4.12451 26.9833C4.57773 27.4208 5.19241 27.6667 5.83335 27.6667H25.1667C25.8076 27.6667 26.4223 27.4208 26.8755 26.9833C27.3287 26.5457 27.5834 25.9522 27.5834 25.3333V16C27.5834 15.3812 27.3287 14.7877 26.8755 14.3501C26.4223 13.9125 25.8076 13.6667 25.1667 13.6667Z" fill="black"/>
</svg>
