<svg width="32" height="32" viewBox="0 0 32 32" fill="none" xmlns="http://www.w3.org/2000/svg">
<path d="M16.1334 24.1875L16 24.3125L15.8534 24.1875C9.52002 18.8 5.33335 15.2375 5.33335 11.625C5.33335 9.125 7.33335 7.25 10 7.25C12.0534 7.25 14.0534 8.5 14.76 10.2H17.24C17.9467 8.5 19.9467 7.25 22 7.25C24.6667 7.25 26.6667 9.125 26.6667 11.625C26.6667 15.2375 22.48 18.8 16.1334 24.1875ZM22 4.75C19.68 4.75 17.4534 5.7625 16 7.35C14.5467 5.7625 12.32 4.75 10 4.75C5.89335 4.75 2.66669 7.7625 2.66669 11.625C2.66669 16.3375 7.20002 20.2 14.0667 26.0375L16 27.6875L17.9334 26.0375C24.8 20.2 29.3334 16.3375 29.3334 11.625C29.3334 7.7625 26.1067 4.75 22 4.75Z" fill="black"/>
</svg>
