<svg width="32" height="36" viewBox="0 0 32 36" fill="none" xmlns="http://www.w3.org/2000/svg">
<path d="M18 11.4469C19.1366 11.4469 20.2267 11.7876 21.0305 12.3942C21.8342 13.0008 22.2857 13.8234 22.2857 14.6813C22.2857 15.106 22.1749 15.5266 21.9595 15.919C21.7441 16.3114 21.4284 16.668 21.0305 16.9683C20.6325 17.2686 20.16 17.5069 19.6401 17.6694C19.1201 17.832 18.5628 17.9156 18 17.9156C16.8634 17.9156 15.7733 17.5749 14.9695 16.9683C14.1658 16.3617 13.7143 15.5391 13.7143 14.6813C13.7143 13.8234 14.1658 13.0008 14.9695 12.3942C15.7733 11.7876 16.8634 11.4469 18 11.4469ZM18 5.625C21.1826 5.625 24.2348 6.57914 26.4853 8.27751C28.7357 9.97589 30 12.2794 30 14.6813C30 21.4734 18 31.5 18 31.5C18 31.5 6 21.4734 6 14.6813C6 12.2794 7.26428 9.97589 9.51472 8.27751C11.7652 6.57914 14.8174 5.625 18 5.625ZM18 8.2125C15.7267 8.2125 13.5465 8.89403 11.9391 10.1072C10.3316 11.3203 9.42857 12.9656 9.42857 14.6813C9.42857 15.975 9.42857 18.5625 18 27.2436C26.5714 18.5625 26.5714 15.975 26.5714 14.6813C26.5714 12.9656 25.6684 11.3203 24.0609 10.1072C22.4535 8.89403 20.2733 8.2125 18 8.2125Z" fill="black"/>
</svg>
