<svg width="32" height="32" viewBox="0 0 32 32" fill="none" xmlns="http://www.w3.org/2000/svg">
<g clip-path="url(#clip0_104_50)">
<path d="M25.3334 5.83333C26.3536 5.83328 27.3354 6.18655 28.0777 6.82088C28.82 7.4552 29.2668 8.32262 29.3267 9.24566L29.3334 9.45833V11.6539C29.3303 11.9802 29.2333 12.3002 29.0518 12.5821C28.8703 12.864 28.6107 13.098 28.2987 13.261L28.156 13.331C27.7246 13.5229 27.3585 13.8169 27.0963 14.1818C26.8341 14.5468 26.6856 14.9691 26.6665 15.4043C26.6473 15.8394 26.7583 16.2712 26.9876 16.6539C27.217 17.0365 27.5562 17.356 27.9694 17.5783L28.156 17.669C28.7334 17.9275 29.2494 18.4616 29.324 19.1673L29.3334 19.3461V21.5417C29.3334 22.4663 28.9436 23.356 28.2436 24.0287C27.5437 24.7015 26.5865 25.1064 25.568 25.1606L25.3334 25.1667H6.66669C5.64641 25.1667 4.66467 24.8134 3.92234 24.1791C3.18001 23.5448 2.73321 22.6774 2.67335 21.7543L2.66669 21.5417V19.3461C2.66669 18.6139 3.13602 18.0435 3.70135 17.739L3.84402 17.669C4.2754 17.4771 4.64154 17.1831 4.90374 16.8182C5.16595 16.4532 5.31446 16.0308 5.33359 15.5957C5.35271 15.1606 5.24173 14.7288 5.01239 14.3461C4.78305 13.9634 4.44386 13.644 4.03069 13.4217L3.84402 13.331C3.26669 13.0725 2.75069 12.5384 2.67602 11.8327L2.66669 11.6551V9.45833C2.66663 8.5337 3.05645 7.644 3.7564 6.97126C4.45634 6.29853 5.4135 5.89362 6.43202 5.83937L6.66669 5.83333H25.3334ZM25.3334 8.24999H6.66669C6.34011 8.25003 6.0249 8.35869 5.78086 8.55536C5.53681 8.75203 5.3809 9.02302 5.34269 9.31695L5.33335 9.45833V11.3131C6.1236 11.7259 6.78379 12.3155 7.25081 13.0255C7.71783 13.7355 7.97605 14.5422 8.0008 15.3685C8.02555 16.1948 7.81599 17.0131 7.39216 17.745C6.96833 18.4769 6.34439 19.0981 5.58002 19.5491L5.33335 19.6869V21.5417C5.3334 21.8376 5.45329 22.1233 5.67031 22.3444C5.88732 22.5656 6.18635 22.7069 6.51069 22.7415L6.66669 22.75H25.3334C25.6599 22.75 25.9751 22.6413 26.2192 22.4446C26.4632 22.248 26.6191 21.977 26.6574 21.683L26.6667 21.5417V19.6869C25.8764 19.2741 25.2162 18.6845 24.7492 17.9745C24.2822 17.2645 24.024 16.4577 23.9992 15.6314C23.9745 14.8052 24.184 13.9869 24.6079 13.255C25.0317 12.523 25.6556 11.9019 26.42 11.4509L26.6667 11.3131V9.45833C26.6666 9.16237 26.5467 8.87671 26.3297 8.65555C26.1127 8.43438 25.8137 8.29308 25.4894 8.25845L25.3334 8.24999ZM13.3334 11.875C13.6599 11.875 13.9751 11.9837 14.2192 12.1804C14.4632 12.377 14.6191 12.648 14.6574 12.942L14.6667 13.0833V17.9167C14.6663 18.2246 14.5362 18.5209 14.3029 18.7448C14.0696 18.9688 13.7507 19.1035 13.4115 19.1216C13.0722 19.1396 12.7382 19.0396 12.4776 18.8419C12.217 18.6443 12.0495 18.3639 12.0094 18.058L12 17.9167V13.0833C12 12.7629 12.1405 12.4555 12.3905 12.2289C12.6406 12.0023 12.9797 11.875 13.3334 11.875Z" fill="black"/>
</g>
<defs>
<clipPath id="clip0_104_50">
<rect width="32" height="29" fill="white" transform="translate(0 1)"/>
</clipPath>
</defs>
</svg>
