<svg width="32" height="32" viewBox="0 0 32 32" fill="none" xmlns="http://www.w3.org/2000/svg">
<path d="M9.94727 10C9.96393 7.39 10.0987 5.9764 11.1653 5.0548C12.3862 4 14.35 4 18.2778 4H19.6667C23.5959 4 25.5598 4 26.7806 5.0548C28 6.1084 28 7.8064 28 11.2V20.8C28 24.1936 28 25.8916 26.7806 26.9452C25.5584 28 23.5959 28 19.6667 28H18.2778C14.35 28 12.3862 28 11.1653 26.9452C10.0987 26.0236 9.96393 24.61 9.94727 22" stroke="black" stroke-width="1.5" stroke-linecap="round"/>
<path d="M9.94444 25C6.67083 25 5.03333 25 4.01667 24.1216C3 23.242 3 21.8284 3 19V13C3 10.1716 3 8.7568 4.01667 7.8784C5.03333 7 6.67083 7 9.94444 7" stroke="black" stroke-width="1.5"/>
<path d="M19.6667 16H7.16669M7.16669 16L9.94446 18.4M7.16669 16L9.94446 13.6" stroke="black" stroke-width="1.5" stroke-linecap="round" stroke-linejoin="round"/>
</svg>
