<svg width="27" height="25" viewBox="0 0 27 25" fill="none" xmlns="http://www.w3.org/2000/svg">
<g clip-path="url(#clip0_9_116)">
<path d="M26.2322 10.247C26.3896 11.086 26.4681 11.936 26.4667 12.7876C26.4667 16.5907 24.9986 19.8063 22.4438 21.9829H22.4471C20.2129 23.8938 17.1416 25.0001 13.5 25.0001C9.91958 25.0001 6.4858 23.6831 3.95406 21.3389C1.42232 18.9947 0 15.8153 0 12.5001C0 9.18489 1.42232 6.00546 3.95406 3.66126C6.4858 1.31705 9.91958 9.24009e-05 13.5 9.24009e-05C16.8513 -0.0362488 20.0877 1.12952 22.5315 3.25322L18.6772 6.82197C17.284 5.59224 15.4246 4.91883 13.5 4.94697C9.97819 4.94697 6.98625 7.14697 5.91975 10.1095C5.35428 11.6618 5.35428 13.3431 5.91975 14.8954H5.92481C6.99638 17.8532 9.98325 20.0532 13.5051 20.0532C15.3242 20.0532 16.8868 19.622 18.0984 18.8595H18.0934C18.7969 18.4279 19.3987 17.8688 19.8625 17.216C20.3262 16.5632 20.6423 15.8301 20.7917 15.061H13.5V10.2485L26.2322 10.247Z" fill="#FF8C00"/>
</g>
<defs>
<clipPath id="clip0_9_116">
<rect width="27" height="25" fill="white"/>
</clipPath>
</defs>
</svg>
