<svg width="29" height="30" viewBox="0 0 29 30" fill="none" xmlns="http://www.w3.org/2000/svg">
<path fill-rule="evenodd" clip-rule="evenodd" d="M3.625 25.3125V13.125H5.4375V25.3125C5.4375 25.5611 5.53298 25.7996 5.70293 25.9754C5.87289 26.1512 6.1034 26.25 6.34375 26.25H22.6562C22.8966 26.25 23.1271 26.1512 23.2971 25.9754C23.467 25.7996 23.5625 25.5611 23.5625 25.3125V13.125H25.375V25.3125C25.375 26.0584 25.0886 26.7738 24.5787 27.3012C24.0688 27.8287 23.3773 28.125 22.6562 28.125H6.34375C5.62269 28.125 4.93117 27.8287 4.4213 27.3012C3.91144 26.7738 3.625 26.0584 3.625 25.3125ZM23.5625 4.6875V11.25L19.9375 7.5V4.6875C19.9375 4.43886 20.033 4.2004 20.2029 4.02459C20.3729 3.84877 20.6034 3.75 20.8438 3.75H22.6562C22.8966 3.75 23.1271 3.84877 23.2971 4.02459C23.467 4.2004 23.5625 4.43886 23.5625 4.6875Z" fill="white"/>
<path fill-rule="evenodd" clip-rule="evenodd" d="M13.2186 2.81252C13.5585 2.46102 14.0194 2.26355 14.5 2.26355C14.9807 2.26355 15.4416 2.46102 15.7815 2.81252L27.8292 15.2738C27.9993 15.4498 28.0949 15.6886 28.0949 15.9375C28.0949 16.1865 27.9993 16.4252 27.8292 16.6013C27.659 16.7773 27.4282 16.8762 27.1875 16.8762C26.9469 16.8762 26.7161 16.7773 26.5459 16.6013L14.5 4.13815L2.45417 16.6013C2.284 16.7773 2.0532 16.8762 1.81255 16.8762C1.57189 16.8762 1.34109 16.7773 1.17092 16.6013C1.00075 16.4252 0.905151 16.1865 0.905151 15.9375C0.905151 15.6886 1.00075 15.4498 1.17092 15.2738L13.2186 2.81252Z" fill="white"/>
</svg>
