<svg width="29" height="30" viewBox="0 0 29 30" fill="none" xmlns="http://www.w3.org/2000/svg">
<path fill-rule="evenodd" clip-rule="evenodd" d="M3.625 25.3125V13.125H5.4375V25.3125C5.4375 25.5611 5.53298 25.7996 5.70293 25.9754C5.87289 26.1512 6.1034 26.25 6.34375 26.25H22.6562C22.8966 26.25 23.1271 26.1512 23.2971 25.9754C23.467 25.7996 23.5625 25.5611 23.5625 25.3125V13.125H25.375V25.3125C25.375 26.0584 25.0886 26.7738 24.5787 27.3012C24.0688 27.8287 23.3773 28.125 22.6562 28.125H6.34375C5.62269 28.125 4.93117 27.8287 4.4213 27.3012C3.91144 26.7738 3.625 26.0584 3.625 25.3125ZM23.5625 4.6875V11.25L19.9375 7.5V4.6875C19.9375 4.43886 20.033 4.2004 20.2029 4.02459C20.3729 3.84877 20.6034 3.75 20.8438 3.75H22.6562C22.8966 3.75 23.1271 3.84877 23.2971 4.02459C23.467 4.2004 23.5625 4.43886 23.5625 4.6875Z" fill="white"/>
<path fill-rule="evenodd" clip-rule="evenodd" d="M13.2186 2.8124C13.5585 2.46089 14.0194 2.26343 14.5 2.26343C14.9806 2.26343 15.4415 2.46089 15.7814 2.8124L27.8291 15.2737C27.9993 15.4497 28.0949 15.6884 28.0949 15.9374C28.0949 16.1864 27.9993 16.4251 27.8291 16.6012C27.659 16.7772 27.4282 16.8761 27.1875 16.8761C26.9468 16.8761 26.716 16.7772 26.5459 16.6012L14.5 4.13803L2.45413 16.6012C2.28396 16.7772 2.05316 16.8761 1.8125 16.8761C1.57184 16.8761 1.34104 16.7772 1.17088 16.6012C1.00071 16.4251 0.905106 16.1864 0.905106 15.9374C0.905106 15.6884 1.00071 15.4497 1.17088 15.2737L13.2186 2.8124Z" fill="white"/>
</svg>
