<svg width="27" height="24" viewBox="0 0 27 24" fill="none" xmlns="http://www.w3.org/2000/svg">
<path d="M22.338 8.92801L19.926 21.728C19.8882 21.9116 19.7793 22.0778 19.6182 22.1976C19.4571 22.3174 19.254 22.3833 19.044 22.384H7.95598C7.74595 22.3833 7.5428 22.3174 7.38173 22.1976C7.22065 22.0778 7.11178 21.9116 7.07398 21.728L4.66198 8.92801C4.6412 8.81409 4.6484 8.69752 4.68308 8.5863C4.71775 8.47509 4.77909 8.37186 4.86288 8.2837C4.94667 8.19555 5.05092 8.12455 5.16849 8.07558C5.28605 8.02661 5.41415 8.00083 5.54398 8.00001H21.438C21.5693 7.9985 21.6994 8.02257 21.8192 8.07052C21.939 8.11848 22.0455 8.18915 22.1313 8.27759C22.217 8.36602 22.28 8.47008 22.3157 8.58244C22.3514 8.6948 22.359 8.81275 22.338 8.92801ZM23.4 5.60001C23.4 5.81218 23.3052 6.01566 23.1364 6.16569C22.9676 6.31572 22.7387 6.40001 22.5 6.40001H4.49998C4.26128 6.40001 4.03236 6.31572 3.86358 6.16569C3.6948 6.01566 3.59998 5.81218 3.59998 5.60001C3.59998 5.38783 3.6948 5.18435 3.86358 5.03432C4.03236 4.88429 4.26128 4.80001 4.49998 4.80001H8.99998V2.40001C8.99998 2.18783 9.0948 1.98435 9.26358 1.83432C9.43236 1.68429 9.66128 1.60001 9.89998 1.60001H17.1C17.3387 1.60001 17.5676 1.68429 17.7364 1.83432C17.9052 1.98435 18 2.18783 18 2.40001V4.80001H22.5C22.7387 4.80001 22.9676 4.88429 23.1364 5.03432C23.3052 5.18435 23.4 5.38783 23.4 5.60001ZM16.2 4.80001V3.20001H10.8V4.80001H16.2Z" fill="black"/>
</svg>
