<svg width="27" height="24" viewBox="0 0 27 24" fill="none" xmlns="http://www.w3.org/2000/svg">
<path d="M22.338 8.928L19.926 21.728C19.8882 21.9116 19.7793 22.0777 19.6182 22.1976C19.4571 22.3174 19.254 22.3833 19.044 22.384H7.95598C7.74595 22.3833 7.5428 22.3174 7.38173 22.1976C7.22065 22.0777 7.11178 21.9116 7.07398 21.728L4.66198 8.928C4.6412 8.81408 4.6484 8.69751 4.68308 8.5863C4.71775 8.47508 4.77909 8.37185 4.86288 8.2837C4.94667 8.19554 5.05092 8.12454 5.16849 8.07557C5.28605 8.0266 5.41415 8.00082 5.54398 8H21.438C21.5693 7.99849 21.6994 8.02256 21.8192 8.07051C21.939 8.11847 22.0455 8.18914 22.1313 8.27758C22.217 8.36602 22.28 8.47007 22.3157 8.58243C22.3514 8.69479 22.359 8.81274 22.338 8.928ZM23.4 5.6C23.4 5.81217 23.3052 6.01565 23.1364 6.16568C22.9676 6.31571 22.7387 6.4 22.5 6.4H4.49998C4.26128 6.4 4.03236 6.31571 3.86358 6.16568C3.6948 6.01565 3.59998 5.81217 3.59998 5.6C3.59998 5.38783 3.6948 5.18434 3.86358 5.03431C4.03236 4.88428 4.26128 4.8 4.49998 4.8H8.99998V2.4C8.99998 2.18783 9.0948 1.98434 9.26358 1.83431C9.43236 1.68428 9.66128 1.6 9.89998 1.6H17.1C17.3387 1.6 17.5676 1.68428 17.7364 1.83431C17.9052 1.98434 18 2.18783 18 2.4V4.8H22.5C22.7387 4.8 22.9676 4.88428 23.1364 5.03431C23.3052 5.18434 23.4 5.38783 23.4 5.6ZM16.2 4.8V3.2H10.8V4.8H16.2Z" fill="black"/>
</svg>
