<svg width="34" height="33" viewBox="0 0 34 33" fill="none" xmlns="http://www.w3.org/2000/svg">
<g clip-path="url(#clip0_118_374)">
<path d="M23.375 12.375C23.375 14.016 22.7034 15.5898 21.5078 16.7502C20.3123 17.9106 18.6908 18.5625 17 18.5625C15.3092 18.5625 13.6877 17.9106 12.4922 16.7502C11.2967 15.5898 10.625 14.016 10.625 12.375C10.625 10.734 11.2967 9.16016 12.4922 7.99978C13.6877 6.8394 15.3092 6.1875 17 6.1875C18.6908 6.1875 20.3123 6.8394 21.5078 7.99978C22.7034 9.16016 23.375 10.734 23.375 12.375Z" fill="white"/>
<path fill-rule="evenodd" clip-rule="evenodd" d="M0 16.5C0 12.1239 1.79107 7.92709 4.97919 4.83274C8.1673 1.73839 12.4913 0 17 0C21.5087 0 25.8327 1.73839 29.0208 4.83274C32.2089 7.92709 34 12.1239 34 16.5C34 20.8761 32.2089 25.0729 29.0208 28.1673C25.8327 31.2616 21.5087 33 17 33C12.4913 33 8.1673 31.2616 4.97919 28.1673C1.79107 25.0729 0 20.8761 0 16.5ZM17 2.0625C14.1988 2.06264 11.4545 2.8305 9.08311 4.27768C6.71168 5.72487 4.80948 7.79256 3.59542 10.2428C2.38137 12.693 1.90482 15.4261 2.22062 18.1276C2.53642 20.8291 3.63174 23.3892 5.3805 25.5131C6.88925 23.1536 10.2106 20.625 17 20.625C23.7894 20.625 27.1086 23.1516 28.6195 25.5131C30.3683 23.3892 31.4636 20.8291 31.7794 18.1276C32.0952 15.4261 31.6186 12.693 30.4046 10.2428C29.1905 7.79256 27.2883 5.72487 24.9169 4.27768C22.5455 2.8305 19.8012 2.06264 17 2.0625Z" fill="white"/>
</g>
<defs>
<clipPath id="clip0_118_374">
<rect width="34" height="33" fill="white"/>
</clipPath>
</defs>
</svg>
