<svg width="27" height="24" viewBox="0 0 27 24" fill="none" xmlns="http://www.w3.org/2000/svg">
<path d="M23.625 1.5C24.0726 1.5 24.5018 1.65804 24.8182 1.93934C25.1347 2.22064 25.3125 2.60218 25.3125 3V21C25.3125 21.3978 25.1347 21.7794 24.8182 22.0607C24.5018 22.342 24.0726 22.5 23.625 22.5H3.375C2.92745 22.5 2.49822 22.342 2.18176 22.0607C1.86529 21.7794 1.6875 21.3978 1.6875 21V3C1.6875 2.60218 1.86529 2.22064 2.18176 1.93934C2.49822 1.65804 2.92745 1.5 3.375 1.5H23.625ZM3.375 0C2.47989 0 1.62145 0.316071 0.988515 0.87868C0.355579 1.44129 0 2.20435 0 3L0 21C0 21.7957 0.355579 22.5587 0.988515 23.1213C1.62145 23.6839 2.47989 24 3.375 24H23.625C24.5201 24 25.3785 23.6839 26.0115 23.1213C26.6444 22.5587 27 21.7957 27 21V3C27 2.20435 26.6444 1.44129 26.0115 0.87868C25.3785 0.316071 24.5201 0 23.625 0L3.375 0Z" fill="black"/>
</svg>
