<svg width="27" height="31" viewBox="0 0 27 31" fill="none" xmlns="http://www.w3.org/2000/svg">
<path d="M23.625 2.44422C24.0726 2.44422 24.5018 2.64243 24.8182 2.99524C25.1347 3.34805 25.3125 3.82656 25.3125 4.32551V26.901C25.3125 27.4 25.1347 27.8785 24.8182 28.2313C24.5018 28.5841 24.0726 28.7823 23.625 28.7823H3.375C2.92745 28.7823 2.49822 28.5841 2.18176 28.2313C1.86529 27.8785 1.6875 27.4 1.6875 26.901V4.32551C1.6875 3.82656 1.86529 3.34805 2.18176 2.99524C2.49822 2.64243 2.92745 2.44422 3.375 2.44422H23.625ZM3.375 0.562927C2.47989 0.562927 1.62145 0.959341 0.988515 1.66496C0.355579 2.37058 0 3.32761 0 4.32551L0 26.901C0 27.8989 0.355579 28.8559 0.988515 29.5616C1.62145 30.2672 2.47989 30.6636 3.375 30.6636H23.625C24.5201 30.6636 25.3785 30.2672 26.0115 29.5616C26.6444 28.8559 27 27.8989 27 26.901V4.32551C27 3.32761 26.6444 2.37058 26.0115 1.66496C25.3785 0.959341 24.5201 0.562927 23.625 0.562927L3.375 0.562927Z" fill="black"/>
</svg>
