<svg width="27" height="31" viewBox="0 0 27 31" fill="none" xmlns="http://www.w3.org/2000/svg">
<path d="M23.625 2.19004C24.0726 2.19004 24.5018 2.38824 24.8182 2.74106C25.1347 3.09387 25.3125 3.57238 25.3125 4.07133V26.6468C25.3125 27.1458 25.1347 27.6243 24.8182 27.9771C24.5018 28.3299 24.0726 28.5281 23.625 28.5281H3.375C2.92745 28.5281 2.49822 28.3299 2.18176 27.9771C1.86529 27.6243 1.6875 27.1458 1.6875 26.6468V4.07133C1.6875 3.57238 1.86529 3.09387 2.18176 2.74106C2.49822 2.38824 2.92745 2.19004 3.375 2.19004H23.625ZM3.375 0.308746C2.47989 0.308746 1.62145 0.70516 0.988515 1.41078C0.355579 2.1164 0 3.07343 0 4.07133L0 26.6468C0 27.6447 0.355579 28.6018 0.988515 29.3074C1.62145 30.013 2.47989 30.4094 3.375 30.4094H23.625C24.5201 30.4094 25.3785 30.013 26.0115 29.3074C26.6444 28.6018 27 27.6447 27 26.6468V4.07133C27 3.07343 26.6444 2.1164 26.0115 1.41078C25.3785 0.70516 24.5201 0.308746 23.625 0.308746L3.375 0.308746Z" fill="black"/>
</svg>
