<svg width="31" height="25" viewBox="0 0 31 25" fill="none" xmlns="http://www.w3.org/2000/svg">
<path d="M0 0.892857C0 0.656057 0.10887 0.428955 0.302659 0.261512C0.496448 0.0940688 0.759283 0 1.03334 0H4.13337C4.36387 5.50205e-05 4.58773 0.0666976 4.76935 0.18933C4.95098 0.311962 5.07993 0.483543 5.13571 0.676786L5.97272 3.57143H29.9669C30.1239 3.57147 30.2788 3.6024 30.4199 3.66188C30.5609 3.72136 30.6844 3.80783 30.7811 3.91471C30.8777 4.0216 30.9448 4.1461 30.9774 4.27876C31.0101 4.41143 31.0073 4.54877 30.9693 4.68036L27.8693 15.3946C27.8135 15.5879 27.6845 15.7595 27.5029 15.8821C27.3213 16.0047 27.0974 16.0714 26.8669 16.0714H8.26674C8.03624 16.0714 7.81238 16.0047 7.63076 15.8821C7.44914 15.7595 7.32018 15.5879 7.2644 15.3946L3.32736 1.78571H1.03334C0.759283 1.78571 0.496448 1.69165 0.302659 1.5242C0.10887 1.35676 0 1.12966 0 0.892857ZM6.48939 5.35714L9.07275 14.2857H26.0609L28.6443 5.35714H6.48939ZM10.3334 19.6429C9.78531 19.6429 9.25964 19.831 8.87206 20.1659C8.48448 20.5008 8.26674 20.955 8.26674 21.4286C8.26674 21.9022 8.48448 22.3564 8.87206 22.6913C9.25964 23.0261 9.78531 23.2143 10.3334 23.2143C10.8815 23.2143 11.4072 23.0261 11.7948 22.6913C12.1824 22.3564 12.4001 21.9022 12.4001 21.4286C12.4001 20.955 12.1824 20.5008 11.7948 20.1659C11.4072 19.831 10.8815 19.6429 10.3334 19.6429ZM6.20006 21.4286C6.20006 20.4814 6.63554 19.573 7.41069 18.9032C8.18585 18.2334 9.23719 17.8571 10.3334 17.8571C11.4297 17.8571 12.481 18.2334 13.2562 18.9032C14.0313 19.573 14.4668 20.4814 14.4668 21.4286C14.4668 22.3758 14.0313 23.2842 13.2562 23.954C12.481 24.6237 11.4297 25 10.3334 25C9.23719 25 8.18585 24.6237 7.41069 23.954C6.63554 23.2842 6.20006 22.3758 6.20006 21.4286ZM24.8002 19.6429C24.2521 19.6429 23.7264 19.831 23.3389 20.1659C22.9513 20.5008 22.7335 20.955 22.7335 21.4286C22.7335 21.9022 22.9513 22.3564 23.3389 22.6913C23.7264 23.0261 24.2521 23.2143 24.8002 23.2143C25.3483 23.2143 25.874 23.0261 26.2616 22.6913C26.6492 22.3564 26.8669 21.9022 26.8669 21.4286C26.8669 20.955 26.6492 20.5008 26.2616 20.1659C25.874 19.831 25.3483 19.6429 24.8002 19.6429ZM20.6669 21.4286C20.6669 20.4814 21.1023 19.573 21.8775 18.9032C22.6527 18.2334 23.704 17.8571 24.8002 17.8571C25.8965 17.8571 26.9478 18.2334 27.723 18.9032C28.4981 19.573 28.9336 20.4814 28.9336 21.4286C28.9336 22.3758 28.4981 23.2842 27.723 23.954C26.9478 24.6237 25.8965 25 24.8002 25C23.704 25 22.6527 24.6237 21.8775 23.954C21.1023 23.2842 20.6669 22.3758 20.6669 21.4286Z" fill="white"/>
</svg>
