<svg width="20" height="25" viewBox="0 0 20 25" fill="none" xmlns="http://www.w3.org/2000/svg">
<path d="M7.78889 22.686C7.78889 23.9651 8.77778 25 10 25C11.2222 25 12.2111 23.9651 12.2111 22.686H7.78889ZM10 5.23256C13.0667 5.23256 15.5556 7.83721 15.5556 11.0465V19.186H4.44444V11.0465C4.44444 7.83721 6.93333 5.23256 10 5.23256ZM10 0C9.07778 0 8.33333 0.77907 8.33333 1.74419V3.10465C4.84444 3.89535 2.22222 7.15116 2.22222 11.0465V18.0233L0 20.3488V21.5116H20V20.3488L17.7778 18.0233V11.0465C17.7778 7.15116 15.1556 3.89535 11.6667 3.10465V1.74419C11.6667 0.77907 10.9222 0 10 0ZM8.88889 7.55814H11.1111V12.2093H8.88889V7.55814ZM8.88889 14.5349H11.1111V16.8605H8.88889V14.5349Z" fill="#ED2D2D"/>
</svg>
