<svg width="16" height="10" viewBox="0 0 16 10" fill="none" xmlns="http://www.w3.org/2000/svg">
<path fill-rule="evenodd" clip-rule="evenodd" d="M0.180771 0.209794C0.237928 0.143292 0.305829 0.0905301 0.380583 0.0545301C0.455338 0.0185301 0.535478 0 0.616412 0C0.697347 0 0.777487 0.0185301 0.852242 0.0545301C0.926996 0.0905301 0.994897 0.143292 1.05205 0.209794L8.00016 8.27488L14.9483 0.209794C15.0055 0.1434 15.0734 0.0907329 15.1481 0.0548005C15.2229 0.0188681 15.303 0.000373881 15.3839 0.000373881C15.4648 0.000373881 15.5449 0.0188681 15.6197 0.0548005C15.6944 0.0907329 15.7623 0.1434 15.8196 0.209794C15.8768 0.276189 15.9221 0.35501 15.9531 0.441759C15.9841 0.528507 16 0.621484 16 0.71538C16 0.809276 15.9841 0.902252 15.9531 0.989001C15.9221 1.07575 15.8768 1.15457 15.8196 1.22097L8.4358 9.79021C8.37865 9.85671 8.31074 9.90947 8.23599 9.94547C8.16124 9.98147 8.0811 10 8.00016 10C7.91923 10 7.83909 9.98147 7.76433 9.94547C7.68958 9.90947 7.62168 9.85671 7.56452 9.79021L0.180771 1.22097C0.123469 1.15463 0.0780066 1.07583 0.0469869 0.989072C0.0159672 0.902316 0 0.809309 0 0.71538C0 0.62145 0.0159672 0.528444 0.0469869 0.441687C0.0780066 0.35493 0.123469 0.276128 0.180771 0.209794Z" fill="#ED2D2D"/>
</svg>
