<svg width="13" height="13" viewBox="0 0 13 13" fill="none" xmlns="http://www.w3.org/2000/svg">
<path d="M10.9646 0.507679C11.1875 0.239877 11.4884 0.0891593 11.8022 0.0881098C12.1161 0.0870602 12.4176 0.235763 12.6417 0.50207C12.8658 0.768377 12.9945 1.13089 12.9998 1.51123C13.0052 1.89158 12.8868 2.25919 12.6703 2.5346L6.31264 12.1673C6.20337 12.31 6.07149 12.4245 5.92489 12.5039C5.77828 12.5834 5.61996 12.6262 5.4594 12.6298C5.29883 12.6334 5.13931 12.5977 4.99038 12.5249C4.84145 12.4521 4.70617 12.3436 4.59262 12.2059L0.380169 7.09808C0.262815 6.96553 0.168688 6.8057 0.103404 6.6281C0.0381199 6.4505 0.00301561 6.25879 0.000185889 6.06439C-0.00264383 5.87 0.026859 5.6769 0.0869339 5.49662C0.147009 5.31634 0.236425 5.15258 0.349849 5.0151C0.463272 4.87762 0.598379 4.76924 0.74711 4.69642C0.895841 4.6236 1.05515 4.58784 1.21553 4.59127C1.37591 4.5947 1.53408 4.63725 1.68059 4.71638C1.82711 4.79551 1.95898 4.90961 2.06833 5.05185L5.40326 9.09219L10.9344 0.550148C10.9443 0.535191 10.9533 0.521006 10.9646 0.507679Z" fill="black"/>
</svg>
