<svg width="30" height="31" viewBox="0 0 30 31" fill="none" xmlns="http://www.w3.org/2000/svg">
<path d="M22.0171 20.04C23.8326 17.4797 24.6457 14.3053 24.2938 11.152C23.942 7.99874 22.451 5.09903 20.1192 3.03304C17.7875 0.967045 14.7869 -0.112869 11.7178 0.00934763C8.64871 0.131564 5.73744 1.4469 3.56643 3.6922C1.39542 5.9375 0.124773 8.94718 0.00871192 12.1191C-0.10735 15.291 0.939728 18.3913 2.94046 20.7996C4.9412 23.208 7.74804 24.7468 10.7994 25.1082C13.8508 25.4696 16.9218 24.627 19.3978 22.7489H19.396C19.4522 22.8264 19.5122 22.9 19.5797 22.9717L26.7982 30.4319C27.1497 30.7955 27.6267 30.9998 28.124 31C28.6214 31.0002 29.0984 30.7962 29.4503 30.4328C29.8021 30.0695 29.9998 29.5766 30 29.0626C30.0002 28.5486 29.8028 28.0555 29.4512 27.692L22.2327 20.2318C22.1657 20.1617 22.0936 20.0988 22.0171 20.04ZM22.5008 12.5915C22.5008 13.991 22.2341 15.3768 21.7159 16.6699C21.1976 17.9629 20.4381 19.1377 19.4805 20.1273C18.5229 21.117 17.3861 21.902 16.135 22.4376C14.8839 22.9731 13.5429 23.2488 12.1887 23.2488C10.8345 23.2488 9.49357 22.9731 8.24245 22.4376C6.99133 21.902 5.85453 21.117 4.89696 20.1273C3.93939 19.1377 3.17981 17.9629 2.66158 16.6699C2.14334 15.3768 1.87661 13.991 1.87661 12.5915C1.87661 9.76496 2.96306 7.05422 4.89696 5.05558C6.83086 3.05694 9.45378 1.93411 12.1887 1.93411C14.9237 1.93411 17.5466 3.05694 19.4805 5.05558C21.4144 7.05422 22.5008 9.76496 22.5008 12.5915Z" fill="white"/>
</svg>
