<svg width="13" height="13" viewBox="0 0 13 13" fill="none" xmlns="http://www.w3.org/2000/svg">
<path d="M10.9646 0.76186C11.1875 0.494058 11.4884 0.34334 11.8022 0.342291C12.1161 0.341241 12.4176 0.489944 12.6417 0.756251C12.8658 1.02256 12.9945 1.38507 12.9998 1.76542C13.0052 2.14576 12.8868 2.51338 12.6703 2.78878L6.31264 12.4215C6.20337 12.5642 6.07149 12.6786 5.92489 12.7581C5.77828 12.8376 5.61996 12.8804 5.4594 12.884C5.29883 12.8876 5.13931 12.8519 4.99038 12.7791C4.84145 12.7062 4.70617 12.5978 4.59262 12.4601L0.380169 7.35226C0.262815 7.21972 0.168688 7.05988 0.103404 6.88228C0.0381199 6.70469 0.00301561 6.51297 0.000185889 6.31857C-0.00264383 6.12418 0.026859 5.93108 0.0869339 5.7508C0.147009 5.57053 0.236425 5.40676 0.349849 5.26928C0.463272 5.1318 0.598379 5.02342 0.74711 4.9506C0.895841 4.87778 1.05515 4.84202 1.21553 4.84545C1.37591 4.84888 1.53408 4.89143 1.68059 4.97056C1.82711 5.0497 1.95898 5.16379 2.06833 5.30603L5.40326 9.34637L10.9344 0.804329C10.9443 0.789372 10.9533 0.775187 10.9646 0.76186Z" fill="black"/>
</svg>
